# xmcd CD database file
#
# Track frame offsets:
#	150
#	17998
#	41682
#	58913
#	68176
#	84604
#	99907
#	116317
#	131883
#	146010
#
# Disc length: 2099 seconds
#
# Revision: 0
# Processed by: cddbd v1.5.1PL2 Copyright (c) Steve Scherf et al.
# Submitted via: CDex 1.50
#
DISCID=8e08310a
DTITLE=Philip Boulding - Elegance of Hammered Dulcimer (Disk 1)
DYEAR=2005
DGENRE=New Age
TTITLE0=Love Theme From Romeo and Juliet
TTITLE1=Pachelbel's Canon In D
TTITLE2=Gary Owen's/The Swallowtail/Off She Goes
TTITLE3=Hungarian Dance Tune
TTITLE4=Lark In The Thrushes
TTITLE5=Jesu Joy Of Man's Desiring
TTITLE6=Red Wing
TTITLE7=Aura Lee
TTITLE8=Morrison's/Drowsy Maggie
TTITLE9=All Through The Night
EXTD=YEAR: 2005
EXTT0=
EXTT1=
EXTT2=
EXTT3=
EXTT4=
EXTT5=
EXTT6=
EXTT7=
EXTT8=
EXTT9=
PLAYORDER=
